Renner-400-BookItalic.ufo
<glyph name="quotedbl" format="1">
  <advance width="465"/>
  <unicode hex="0022"/>
  <outline>
    <contour>
      <point x="253" y="700" type="line"/>
      <point x="348" y="700" type="line"/>
      <point x="206" y="400" type="line"/>
      <point x="151" y="400" type="line"/>
    </contour>
    <contour>
      <point x="433" y="700" type="line"/>
      <point x="528" y="700" type="line"/>
      <point x="386" y="400" type="line"/>
      <point x="331" y="400" type="line"/>
    </contour>
  </outline>
</glyph>
<glyph name="plus" format="1">
  <advance width="615"/>
  <unicode hex="002B"/>
  <outline>
    <contour>
      <point x="103" y="215" type="line"/>
      <point x="117" y="295" type="line"/>
      <point x="602" y="295" type="line"/>
      <point x="588" y="215" type="line"/>
    </contour>
    <contour>
      <point x="353" y="500" type="line"/>
      <point x="438" y="500" type="line"/>
      <point x="352" y="10" type="line"/>
      <point x="267" y="10" type="line"/>
    </contour>
  </outline>
</glyph>
<glyph name="period" format="1">
  <advance width="300"/>
  <unicode hex="002E"/>
  <outline>
    <contour>
      <point x="102" y="40" type="curve" smooth="yes"/>
      <point x="107" y="70"/>
      <point x="137" y="95"/>
      <point x="167" y="95" type="curve" smooth="yes"/>
      <point x="197" y="95"/>
      <point x="217" y="70"/>
      <point x="212" y="40" type="curve" smooth="yes"/>
      <point x="207" y="10"/>
      <point x="177" y="-15"/>
      <point x="147" y="-15" type="curve" smooth="yes"/>
      <point x="117" y="-15"/>
      <point x="97" y="10"/>
    </contour>
  </outline>
</glyph>
<glyph name="two" format="1">
  <advance width="569"/>
  <unicode hex="0032"/>
  <outline>
    <contour>
      <point x="20" y="0" type="line"/>
      <point x="413" y="353" type="line" smooth="yes"/>
      <point x="468" y="402"/>
      <point x="503" y="450"/>
      <point x="513" y="506" type="curve" smooth="yes"/>
      <point x="524" y="567"/>
      <point x="493" y="631"/>
      <point x="408" y="631" type="curve" smooth="yes"/>
      <point x="318" y="631"/>
      <point x="245" y="566"/>
      <point x="226" y="460" type="curve"/>
      <point x="141" y="460" type="line"/>
      <point x="167" y="609"/>
      <point x="277" y="711"/>
      <point x="422" y="711" type="curve" smooth="yes"/>
      <point x="576" y="711"/>
      <point x="616" y="593"/>
      <point x="599" y="499" type="curve" smooth="yes"/>
      <point x="586" y="427"/>
      <point x="537" y="363"/>
      <point x="472" y="307" type="curve" smooth="yes"/>
      <point x="209" y="80" type="line"/>
      <point x="528" y="80" type="line"/>
      <point x="514" y="0" type="line"/>
    </contour>
  </outline>
</glyph>
<glyph name="at" format="1">
  <advance width="770"/>
  <unicode hex="0040"/>
  <outline>
    <contour>
      <point x="322" y="320" type="curve" smooth="yes"/>
      <point x="312" y="264"/>
      <point x="334" y="230"/>
      <point x="389" y="230" type="curve" smooth="yes"/>
      <point x="439" y="230"/>
      <point x="511" y="264"/>
      <point x="530" y="370" type="curve" smooth="yes"/>
      <point x="540" y="426"/>
      <point x="509" y="460"/>
      <point x="459" y="460" type="curve" smooth="yes"/>
      <point x="404" y="460"/>
      <point x="337" y="406"/>
    </contour>
    <contour>
      <point x="246" y="317" type="curve" smooth="yes"/>
      <point x="271" y="456"/>
      <point x="386" y="530"/>
      <point x="471" y="530" type="curve" smooth="yes"/>
      <point x="556" y="530"/>
      <point x="580" y="449"/>
      <point x="566" y="370" type="curve" smooth="yes"/>
      <point x="541" y="231"/>
      <point x="451" y="160"/>
      <point x="356" y="160" type="curve" smooth="yes"/>
      <point x="283" y="160"/>
      <point x="229" y="218"/>
    </contour>
    <contour>
      <point x="91" y="320" type="curve" smooth="yes"/>
      <point x="130" y="539"/>
      <point x="316" y="710"/>
      <point x="540" y="710" type="curve" smooth="yes"/>
      <point x="754" y="710"/>
      <point x="832" y="549"/>
      <point x="804" y="390" type="curve" smooth="yes"/>
      <point x="773" y="214"/>
      <point x="657" y="150"/>
      <point x="582" y="150" type="curve" smooth="yes"/>
      <point x="521" y="150"/>
      <point x="492" y="204"/>
      <point x="514" y="270" type="curve"/>
      <point x="507" y="270" type="line"/>
      <point x="587" y="520" type="line"/>
      <point x="662" y="520" type="line"/>
      <point x="580" y="289" type="line" smooth="yes"/>
      <point x="578" y="282"/>
      <point x="574" y="270"/>
      <point x="573" y="262" type="curve" smooth="yes"/>
      <point x="569" y="238"/>
      <point x="571" y="216"/>
      <point x="604" y="216" type="curve" smooth="yes"/>
      <point x="634" y="216"/>
      <point x="712" y="264"/>
      <point x="734" y="390" type="curve" smooth="yes"/>
      <point x="757" y="523"/>
      <point x="697" y="645"/>
      <point x="529" y="645" type="curve" smooth="yes"/>
      <point x="341" y="645"/>
      <point x="193" y="503"/>
      <point x="161" y="320" type="curve" smooth="yes"/>
      <point x="132" y="157"/>
      <point x="217" y="55"/>
      <point x="375" y="55" type="curve" smooth="yes"/>
      <point x="445" y="55"/>
      <point x="512" y="65"/>
      <point x="585" y="107" type="curve"/>
      <point x="610" y="50" type="line"/>
      <point x="544" y="14"/>
      <point x="477" y="-10"/>
      <point x="363" y="-10" type="curve" smooth="yes"/>
      <point x="149" y="-10"/>
      <point x="56" y="121"/>
    </contour>
  </outline>
</glyph>
<glyph name="L" format="1">
  <advance width="450"/>
  <unicode hex="004C"/>
  <outline>
    <contour>
      <point x="127" y="0" type="line"/>
      <point x="141" y="80" type="line"/>
      <point x="454" y="80" type="line"/>
      <point x="440" y="0" type="line"/>
    </contour>
    <contour>
      <point x="203" y="700" type="line"/>
      <point x="288" y="700" type="line"/>
      <point x="165" y="0" type="line"/>
      <point x="80" y="0" type="line"/>
    </contour>
  </outline>
</glyph>
<glyph name="R" format="1">
  <advance width="560"/>
  <unicode hex="0052"/>
  <outline>
    <contour>
      <point x="266" y="345" type="line"/>
      <point x="361" y="345" type="line"/>
      <point x="550" y="0" type="line"/>
      <point x="445" y="0" type="line"/>
    </contour>
    <contour>
      <point x="203" y="700" type="line"/>
      <point x="288" y="700" type="line"/>
      <point x="165" y="0" type="line"/>
      <point x="80" y="0" type="line"/>
    </contour>
    <contour>
      <point x="237" y="625" type="line"/>
      <point x="250" y="700" type="line"/>
      <point x="393" y="700" type="line" smooth="yes"/>
      <point x="528" y="700"/>
      <point x="617" y="619"/>
      <point x="594" y="490" type="curve" smooth="yes"/>
      <point x="571" y="361"/>
      <point x="454" y="280"/>
      <point x="319" y="280" type="curve" smooth="yes"/>
      <point x="176" y="280" type="line"/>
      <point x="190" y="355" type="line"/>
      <point x="333" y="355" type="line" smooth="yes"/>
      <point x="423" y="355"/>
      <point x="494" y="404"/>
      <point x="509" y="490" type="curve" smooth="yes"/>
      <point x="524" y="576"/>
      <point x="470" y="625"/>
      <point x="380" y="625" type="curve" smooth="yes"/>
    </contour>
  </outline>
</glyph>
<glyph name="V" format="1">
  <advance width="660"/>
  <unicode hex="0056"/>
  <outline>
    <contour>
      <point x="358" y="158" type="line"/>
      <point x="683" y="700" type="line"/>
      <point x="778" y="700" type="line"/>
      <point x="324" y="-35" type="line"/>
      <point x="128" y="700" type="line"/>
      <point x="223" y="700" type="line"/>
    </contour>
  </outline>
</glyph>
<glyph name="underscore" format="1">
  <advance width="500"/>
  <unicode hex="005F"/>
  <outline>
    <contour>
      <point x="-23" y="-133" type="line"/>
      <point x="-14" y="-78" type="line"/>
      <point x="486" y="-78" type="line"/>
      <point x="477" y="-133" type="line"/>
    </contour>
  </outline>
</glyph>
<glyph name="f" format="1">
  <advance width="286"/>
  <unicode hex="0066"/>
  <outline>
    <contour>
      <point x="121" y="460" type="line"/>
      <point x="351" y="460" type="line"/>
      <point x="338" y="385" type="line"/>
      <point x="108" y="385" type="line"/>
    </contour>
    <contour>
      <point x="383" y="684" type="line"/>
      <point x="373" y="707"/>
      <point x="354" y="710"/>
      <point x="338" y="710" type="curve" smooth="yes"/>
      <point x="308" y="710"/>
      <point x="286" y="686"/>
      <point x="274" y="620" type="curve" smooth="yes"/>
      <point x="165" y="0" type="line"/>
      <point x="85" y="0" type="line"/>
      <point x="196" y="630" type="line" smooth="yes"/>
      <point x="215" y="739"/>
      <point x="273" y="790"/>
      <point x="357" y="790" type="curve" smooth="yes"/>
      <point x="400" y="790"/>
      <point x="427" y="770"/>
      <point x="438" y="750" type="curve"/>
    </contour>
  </outline>
</glyph>
<glyph name="i" format="1">
  <advance width="260"/>
  <unicode hex="0069"/>
  <outline>
    <contour>
      <point x="190" y="650" type="curve" smooth="yes"/>
      <point x="195" y="680"/>
      <point x="224" y="705"/>
      <point x="254" y="705" type="curve" smooth="yes"/>
      <point x="284" y="705"/>
      <point x="305" y="680"/>
      <point x="300" y="650" type="curve" smooth="yes"/>
      <point x="295" y="620"/>
      <point x="265" y="595"/>
      <point x="235" y="595" type="curve" smooth="yes"/>
      <point x="205" y="595"/>
      <point x="185" y="620"/>
    </contour>
    <contour>
      <point x="171" y="460" type="line"/>
      <point x="251" y="460" type="line"/>
      <point x="170" y="0" type="line"/>
      <point x="90" y="0" type="line"/>
    </contour>
  </outline>
</glyph>
<glyph name="o" format="1">
  <advance width="546"/>
  <unicode hex="006F"/>
  <outline>
    <contour>
      <point x="76" y="230" type="curve" smooth="yes"/>
      <point x="101" y="369"/>
      <point x="221" y="470"/>
      <point x="356" y="470" type="curve" smooth="yes"/>
      <point x="491" y="470"/>
      <point x="577" y="369"/>
      <point x="552" y="230" type="curve" smooth="yes"/>
      <point x="527" y="91"/>
      <point x="406" y="-10"/>
      <point x="271" y="-10" type="curve" smooth="yes"/>
      <point x="136" y="-10"/>
      <point x="51" y="91"/>
    </contour>
    <contour>
      <point x="157" y="230" type="curve" smooth="yes"/>
      <point x="140" y="134"/>
      <point x="194" y="65"/>
      <point x="284" y="65" type="curve" smooth="yes"/>
      <point x="374" y="65"/>
      <point x="454" y="134"/>
      <point x="471" y="230" type="curve" smooth="yes"/>
      <point x="488" y="326"/>
      <point x="433" y="395"/>
      <point x="343" y="395" type="curve" smooth="yes"/>
      <point x="253" y="395"/>
      <point x="174" y="326"/>
    </contour>
  </outline>
</glyph>
<glyph name="x" format="1">
  <advance width="420"/>
  <unicode hex="0078"/>
  <outline>
    <contour>
      <point x="401" y="460" type="line"/>
      <point x="491" y="460" type="line"/>
      <point x="295" y="237" type="line"/>
      <point x="420" y="0" type="line"/>
      <point x="330" y="0" type="line"/>
      <point x="241" y="174" type="line"/>
      <point x="90" y="0" type="line"/>
      <point x="0" y="0" type="line"/>
      <point x="209" y="237" type="line"/>
      <point x="91" y="460" type="line"/>
      <point x="181" y="460" type="line"/>
      <point x="263" y="300" type="line"/>
    </contour>
  </outline>
</glyph>
<glyph name="z" format="1">
  <advance width="460"/>
  <unicode hex="007A"/>
  <outline>
    <contour>
      <point x="368" y="385" type="line"/>
      <point x="113" y="385" type="line"/>
      <point x="126" y="460" type="line"/>
      <point x="526" y="460" type="line"/>
      <point x="173" y="75" type="line"/>
      <point x="438" y="75" type="line"/>
      <point x="425" y="0" type="line"/>
      <point x="15" y="0" type="line"/>
    </contour>
  </outline>
</glyph>
<glyph name="braceleft" format="1">
  <advance width="311"/>
  <unicode hex="007B"/>
  <outline>
    <contour>
      <point x="294" y="660" type="curve" smooth="yes"/>
      <point x="264" y="490" type="line" smooth="yes"/>
      <point x="248" y="401"/>
      <point x="223" y="280"/>
      <point x="114" y="280" type="curve"/>
      <point x="118" y="300" type="line"/>
      <point x="227" y="300"/>
      <point x="210" y="179"/>
      <point x="194" y="90" type="curve" smooth="yes"/>
      <point x="164" y="-80" type="line" smooth="yes"/>
      <point x="159" y="-106"/>
      <point x="173" y="-130"/>
      <point x="203" y="-130" type="curve" smooth="yes"/>
      <point x="238" y="-130" type="line"/>
      <point x="226" y="-200" type="line"/>
      <point x="166" y="-200" type="line" smooth="yes"/>
      <point x="122" y="-200"/>
      <point x="70" y="-159"/>
      <point x="87" y="-60" type="curve" smooth="yes"/>
      <point x="124" y="150" type="line" smooth="yes"/>
      <point x="137" y="226"/>
      <point x="124" y="250"/>
      <point x="96" y="260" type="curve"/>
      <point x="106" y="320" type="line"/>
      <point x="138" y="330"/>
      <point x="161" y="354"/>
      <point x="174" y="430" type="curve" smooth="yes"/>
      <point x="211" y="640" type="line" smooth="yes"/>
      <point x="228" y="739"/>
      <point x="295" y="780"/>
      <point x="339" y="780" type="curve" smooth="yes"/>
      <point x="399" y="780" type="line"/>
      <point x="386" y="710" type="line"/>
      <point x="351" y="710" type="line" smooth="yes"/>
      <point x="321" y="710"/>
      <point x="299" y="686"/>
    </contour>
  </outline>
</glyph>
<glyph name="sterling" format="1">
  <advance width="580"/>
  <unicode hex="00A3"/>
  <outline>
    <contour>
      <point x="132" y="370" type="line"/>
      <point x="492" y="370" type="line"/>
      <point x="479" y="295" type="line"/>
      <point x="119" y="295" type="line"/>
    </contour>
    <contour>
      <point x="534" y="479" type="line"/>
      <point x="543" y="552"/>
      <point x="517" y="626"/>
      <point x="431" y="626" type="curve" smooth="yes"/>
      <point x="371" y="626"/>
      <point x="308" y="596"/>
      <point x="295" y="520" type="curve" smooth="yes"/>
      <point x="275" y="404"/>
      <point x="365" y="376"/>
      <point x="345" y="264" type="curve" smooth="yes"/>
      <point x="326" y="158"/>
      <point x="239" y="70"/>
      <point x="161" y="50" type="curve"/>
      <point x="168" y="80" type="line"/>
      <point x="531" y="80" type="line"/>
      <point x="517" y="0" type="line"/>
      <point x="64" y="0" type="line"/>
      <point x="180" y="102"/>
      <point x="245" y="161"/>
      <point x="261" y="249" type="curve" smooth="yes"/>
      <point x="278" y="343"/>
      <point x="183" y="382"/>
      <point x="207" y="518" type="curve" smooth="yes"/>
      <point x="228" y="637"/>
      <point x="327" y="710"/>
      <point x="446" y="710" type="curve" smooth="yes"/>
      <point x="579" y="710"/>
      <point x="620" y="588"/>
      <point x="611" y="508" type="curve"/>
    </contour>
  </outline>
</glyph>
<glyph name="brokenbar" format="1">
  <advance width="274"/>
  <unicode hex="00A6"/>
  <outline>
    <contour>
      <point x="223" y="695" type="line"/>
      <point x="297" y="695" type="line"/>
      <point x="254" y="455" type="line"/>
      <point x="180" y="455" type="line"/>
    </contour>
    <contour>
      <point x="217" y="245" type="line"/>
      <point x="175" y="5" type="line"/>
      <point x="101" y="5" type="line"/>
      <point x="143" y="245" type="line"/>
    </contour>
  </outline>
</glyph>
<glyph name="copyright" format="1">
  <advance width="800"/>
  <unicode hex="00A9"/>
  <outline>
    <contour>
      <point x="301" y="350" type="curve" smooth="yes"/>
      <point x="284" y="252"/>
      <point x="339" y="185"/>
      <point x="428" y="185" type="curve" smooth="yes"/>
      <point x="487" y="185"/>
      <point x="538" y="210"/>
      <point x="574" y="247" type="curve"/>
      <point x="562" y="180" type="line"/>
      <point x="522" y="149"/>
      <point x="480" y="134"/>
      <point x="419" y="134" type="curve" smooth="yes"/>
      <point x="303" y="134"/>
      <point x="225" y="225"/>
      <point x="247" y="350" type="curve" smooth="yes"/>
      <point x="269" y="475"/>
      <point x="379" y="566"/>
      <point x="495" y="566" type="curve" smooth="yes"/>
      <point x="556" y="566"/>
      <point x="592" y="551"/>
      <point x="622" y="520" type="curve"/>
      <point x="610" y="453" type="line"/>
      <point x="588" y="490"/>
      <point x="545" y="515"/>
      <point x="486" y="515" type="curve" smooth="yes"/>
      <point x="397" y="515"/>
      <point x="318" y="448"/>
    </contour>
    <contour>
      <point x="157" y="350" type="curve" smooth="yes"/>
      <point x="126" y="172"/>
      <point x="234" y="40"/>
      <point x="407" y="40" type="curve" smooth="yes"/>
      <point x="580" y="40"/>
      <point x="736" y="172"/>
      <point x="767" y="350" type="curve" smooth="yes"/>
      <point x="798" y="528"/>
      <point x="689" y="660"/>
      <point x="516" y="660" type="curve" smooth="yes"/>
      <point x="343" y="660"/>
      <point x="188" y="528"/>
    </contour>
    <contour>
      <point x="102" y="350" type="curve" smooth="yes"/>
      <point x="139" y="559"/>
      <point x="321" y="710"/>
      <point x="525" y="710" type="curve" smooth="yes"/>
      <point x="729" y="710"/>
      <point x="859" y="559"/>
      <point x="822" y="350" type="curve" smooth="yes"/>
      <point x="785" y="141"/>
      <point x="602" y="-10"/>
      <point x="398" y="-10" type="curve" smooth="yes"/>
      <point x="194" y="-10"/>
      <point x="65" y="141"/>
    </contour>
  </outline>
</glyph>
<glyph name="guillemotleft" format="1">
  <advance width="510"/>
  <unicode hex="00AB"/>
  <outline>
    <contour>
      <point x="151" y="235" type="line"/>
      <point x="85" y="255" type="line"/>
      <point x="316" y="490" type="line"/>
      <point x="358" y="445" type="line"/>
    </contour>
    <contour>
      <point x="85" y="255" type="line"/>
      <point x="160" y="285" type="line"/>
      <point x="291" y="65" type="line"/>
      <point x="234" y="20" type="line"/>
    </contour>
    <contour>
      <point x="311" y="235" type="line"/>
      <point x="245" y="255" type="line"/>
      <point x="476" y="490" type="line"/>
      <point x="518" y="445" type="line"/>
    </contour>
    <contour>
      <point x="245" y="255" type="line"/>
      <point x="320" y="285" type="line"/>
      <point x="451" y="65" type="line"/>
      <point x="394" y="20" type="line"/>
    </contour>
  </outline>
</glyph>
<glyph name="acute" format="1">
  <advance width="375"/>
  <unicode hex="00B4"/>
  <outline>
    <contour>
      <point x="416" y="660" type="line"/>
      <point x="210" y="510" type="line"/>
      <point x="170" y="540" type="line"/>
      <point x="348" y="700" type="line"/>
    </contour>
  </outline>
</glyph>
<glyph name="cedilla" format="1">
  <advance width="350"/>
  <unicode hex="00B8"/>
  <outline>
    <contour>
      <point x="207" y="60" type="line"/>
      <point x="268" y="60" type="line"/>
      <point x="182" y="-54" type="line"/>
      <point x="92" y="-108" type="line"/>
    </contour>
    <contour>
      <point x="253" y="-126" type="curve"/>
      <point x="196" y="-126" type="line"/>
      <point x="200" y="-102"/>
      <point x="186" y="-90"/>
      <point x="152" y="-90" type="curve" smooth="yes"/>
      <point x="142" y="-90"/>
      <point x="118" y="-92"/>
      <point x="92" y="-108" type="curve"/>
      <point x="139" y="-68" type="line"/>
      <point x="168" y="-52"/>
      <point x="180" y="-52"/>
      <point x="193" y="-52" type="curve" smooth="yes"/>
      <point x="226" y="-52"/>
      <point x="262" y="-77"/>
    </contour>
    <contour>
      <point x="253" y="-126" type="line"/>
      <point x="242" y="-187"/>
      <point x="184" y="-220"/>
      <point x="129" y="-220" type="curve" smooth="yes"/>
      <point x="92" y="-220"/>
      <point x="70" y="-210"/>
      <point x="47" y="-182" type="curve"/>
      <point x="87" y="-142" type="line"/>
      <point x="103" y="-158"/>
      <point x="113" y="-166"/>
      <point x="139" y="-166" type="curve" smooth="yes"/>
      <point x="173" y="-166"/>
      <point x="192" y="-150"/>
      <point x="196" y="-126" type="curve"/>
    </contour>
  </outline>
</glyph>
<glyph name="threequarters" format="1">
  <advance width="820"/>
  <unicode hex="00BE"/>
  <outline>
    <contour>
      <point x="808" y="700" type="line"/>
      <point x="873" y="700" type="line"/>
      <point x="230" y="0" type="line"/>
      <point x="165" y="0" type="line"/>
    </contour>
    <contour>
      <point x="232" y="487" type="curve"/>
      <point x="238" y="520" type="line"/>
      <point x="292" y="520"/>
      <point x="329" y="553"/>
      <point x="336" y="593" type="curve" smooth="yes"/>
      <point x="343" y="633"/>
      <point x="325" y="660"/>
      <point x="283" y="660" type="curve" smooth="yes"/>
      <point x="244" y="660"/>
      <point x="209" y="633"/>
      <point x="202" y="596" type="curve"/>
      <point x="153" y="596" type="line"/>
      <point x="164" y="661"/>
      <point x="222" y="706"/>
      <point x="291" y="706" type="curve" smooth="yes"/>
      <point x="363" y="706"/>
      <point x="398" y="653"/>
      <point x="388" y="594" type="curve" smooth="yes"/>
      <point x="378" y="535"/>
      <point x="313" y="487"/>
    </contour>
    <contour>
      <point x="212" y="274" type="curve" smooth="yes"/>
      <point x="131" y="274"/>
      <point x="88" y="326"/>
      <point x="99" y="391" type="curve"/>
      <point x="151" y="391" type="line"/>
      <point x="144" y="351"/>
      <point x="173" y="322"/>
      <point x="221" y="322" type="curve" smooth="yes"/>
      <point x="269" y="322"/>
      <point x="305" y="351"/>
      <point x="313" y="397" type="curve" smooth="yes"/>
      <point x="322" y="449"/>
      <point x="284" y="475"/>
      <point x="230" y="475" type="curve"/>
      <point x="236" y="508" type="line"/>
      <point x="317" y="508"/>
      <point x="379" y="474"/>
      <point x="364" y="391" type="curve" smooth="yes"/>
      <point x="351" y="320"/>
      <point x="287" y="274"/>
    </contour>
    <contour>
      <point x="480" y="84" type="line"/>
      <point x="530" y="129" type="line"/>
      <point x="712" y="129" type="line" smooth="yes"/>
      <point x="722" y="129" type="line" smooth="yes"/>
      <point x="808" y="129" type="line"/>
      <point x="800" y="84" type="line"/>
    </contour>
    <contour>
      <point x="534" y="84" type="line"/>
      <point x="480" y="84" type="line"/>
      <point x="772" y="420" type="line"/>
      <point x="793" y="420" type="line"/>
      <point x="719" y="0" type="line"/>
      <point x="668" y="0" type="line"/>
      <point x="687" y="106" type="line" smooth="yes"/>
      <point x="688" y="112" type="line" smooth="yes"/>
      <point x="722" y="307" type="line"/>
    </contour>
  </outline>
</glyph>
<glyph name="Iacute" format="1">
  <advance width="245"/>
  <unicode hex="00CD"/>
  <outline>
    <contour>
      <point x="203" y="700" type="line"/>
      <point x="288" y="700" type="line"/>
      <point x="165" y="0" type="line"/>
      <point x="80" y="0" type="line"/>
    </contour>
    <contour>
      <point x="414" y="920" type="line"/>
      <point x="208" y="770" type="line"/>
      <point x="169" y="800" type="line"/>
      <point x="347" y="960" type="line"/>
    </contour>
  </outline>
</glyph>
<glyph name="Idieresis" format="1">
  <advance width="245"/>
  <unicode hex="00CF"/>
  <outline>
    <contour>
      <point x="203" y="700" type="line"/>
      <point x="288" y="700" type="line"/>
      <point x="165" y="0" type="line"/>
      <point x="80" y="0" type="line"/>
    </contour>
    <contour>
      <point x="313" y="825" type="curve" smooth="yes"/>
      <point x="318" y="855"/>
      <point x="347" y="880"/>
      <point x="377" y="880" type="curve" smooth="yes"/>
      <point x="407" y="880"/>
      <point x="428" y="855"/>
      <point x="423" y="825" type="curve" smooth="yes"/>
      <point x="418" y="795"/>
      <point x="388" y="770"/>
      <point x="358" y="770" type="curve" smooth="yes"/>
      <point x="328" y="770"/>
      <point x="308" y="795"/>
    </contour>
    <contour>
      <point x="113" y="825" type="curve" smooth="yes"/>
      <point x="118" y="855"/>
      <point x="147" y="880"/>
      <point x="177" y="880" type="curve" smooth="yes"/>
      <point x="207" y="880"/>
      <point x="228" y="855"/>
      <point x="223" y="825" type="curve" smooth="yes"/>
      <point x="218" y="795"/>
      <point x="188" y="770"/>
      <point x="158" y="770" type="curve" smooth="yes"/>
      <point x="128" y="770"/>
      <point x="108" y="795"/>
    </contour>
  </outline>
</glyph>
<glyph name="Udieresis" format="1">
  <advance width="626"/>
  <unicode hex="00DC"/>
  <outline>
    <contour>
      <point x="198" y="700" type="line"/>
      <point x="283" y="700" type="line"/>
      <point x="201" y="230" type="line" smooth="yes"/>
      <point x="184" y="134"/>
      <point x="225" y="70"/>
      <point x="325" y="70" type="curve" smooth="yes"/>
      <point x="425" y="70"/>
      <point x="490" y="134"/>
      <point x="507" y="230" type="curve" smooth="yes"/>
      <point x="589" y="700" type="line"/>
      <point x="674" y="700" type="line"/>
      <point x="592" y="230" type="line" smooth="yes"/>
      <point x="567" y="91"/>
      <point x="456" y="-10"/>
      <point x="311" y="-10" type="curve" smooth="yes"/>
      <point x="166" y="-10"/>
      <point x="91" y="91"/>
      <point x="116" y="230" type="curve" smooth="yes"/>
    </contour>
    <contour>
      <point x="503" y="825" type="curve" smooth="yes"/>
      <point x="508" y="855"/>
      <point x="538" y="880"/>
      <point x="568" y="880" type="curve" smooth="yes"/>
      <point x="598" y="880"/>
      <point x="618" y="855"/>
      <point x="613" y="825" type="curve" smooth="yes"/>
      <point x="608" y="795"/>
      <point x="579" y="770"/>
      <point x="549" y="770" type="curve" smooth="yes"/>
      <point x="519" y="770"/>
      <point x="498" y="795"/>
    </contour>
    <contour>
      <point x="303" y="825" type="curve" smooth="yes"/>
      <point x="308" y="855"/>
      <point x="338" y="880"/>
      <point x="368" y="880" type="curve" smooth="yes"/>
      <point x="398" y="880"/>
      <point x="418" y="855"/>
      <point x="413" y="825" type="curve" smooth="yes"/>
      <point x="408" y="795"/>
      <point x="379" y="770"/>
      <point x="349" y="770" type="curve" smooth="yes"/>
      <point x="319" y="770"/>
      <point x="298" y="795"/>
    </contour>
  </outline>
</glyph>
<glyph name="aring" format="1">
  <advance width="485"/>
  <unicode hex="00E5"/>
  <outline>
    <contour>
      <point x="135" y="135" type="curve" smooth="yes"/>
      <point x="126" y="86"/>
      <point x="155" y="61"/>
      <point x="219" y="61" type="curve" smooth="yes"/>
      <point x="299" y="61"/>
      <point x="362" y="94"/>
      <point x="377" y="180" type="curve"/>
      <point x="384" y="130" type="line"/>
      <point x="368" y="41"/>
      <point x="281" y="-10"/>
      <point x="186" y="-10" type="curve" smooth="yes"/>
      <point x="91" y="-10"/>
      <point x="37" y="41"/>
      <point x="52" y="125" type="curve" smooth="yes"/>
      <point x="71" y="232"/>
      <point x="165" y="286"/>
      <point x="276" y="286" type="curve" smooth="yes"/>
      <point x="364" y="286"/>
      <point x="407" y="242"/>
      <point x="418" y="225" type="curve"/>
      <point x="409" y="178" type="line"/>
      <point x="370" y="210"/>
      <point x="328" y="225"/>
      <point x="270" y="225" type="curve" smooth="yes"/>
      <point x="189" y="225"/>
      <point x="145" y="191"/>
    </contour>
    <contour>
      <point x="173" y="352" type="curve"/>
      <point x="145" y="413" type="line"/>
      <point x="183" y="438"/>
      <point x="248" y="470"/>
      <point x="331" y="470" type="curve" smooth="yes"/>
      <point x="436" y="470"/>
      <point x="499" y="419"/>
      <point x="483" y="330" type="curve" smooth="yes"/>
      <point x="425" y="0" type="line"/>
      <point x="345" y="0" type="line"/>
      <point x="403" y="330" type="line" smooth="yes"/>
      <point x="411" y="376"/>
      <point x="369" y="400"/>
      <point x="319" y="400" type="curve" smooth="yes"/>
      <point x="253" y="400"/>
      <point x="198" y="368"/>
    </contour>
    <contour>
      <point x="257" y="630" type="curve" smooth="yes"/>
      <point x="268" y="690"/>
      <point x="325" y="730"/>
      <point x="377" y="730" type="curve" smooth="yes"/>
      <point x="429" y="730"/>
      <point x="472" y="690"/>
      <point x="461" y="630" type="curve" smooth="yes"/>
      <point x="450" y="570"/>
      <point x="393" y="530"/>
      <point x="341" y="530" type="curve" smooth="yes"/>
      <point x="289" y="530"/>
      <point x="246" y="570"/>
    </contour>
    <contour>
      <point x="308" y="630" type="curve" smooth="yes"/>
      <point x="302" y="597"/>
      <point x="325" y="577"/>
      <point x="350" y="577" type="curve" smooth="yes"/>
      <point x="375" y="577"/>
      <point x="404" y="597"/>
      <point x="410" y="630" type="curve" smooth="yes"/>
      <point x="416" y="663"/>
      <point x="393" y="683"/>
      <point x="368" y="683" type="curve" smooth="yes"/>
      <point x="343" y="683"/>
      <point x="314" y="663"/>
    </contour>
  </outline>
</glyph>
<glyph name="icircumflex" format="1">
  <advance width="260"/>
  <unicode hex="00EE"/>
  <outline>
    <contour>
      <point x="171" y="460" type="line"/>
      <point x="251" y="460" type="line"/>
      <point x="170" y="0" type="line"/>
      <point x="90" y="0" type="line"/>
    </contour>
    <contour>
      <point x="242" y="635" type="line"/>
      <point x="115" y="540" type="line"/>
      <point x="72" y="580" type="line"/>
      <point x="257" y="720" type="line"/>
      <point x="392" y="580" type="line"/>
      <point x="335" y="540" type="line"/>
    </contour>
  </outline>
</glyph>
<glyph name="eth" format="1">
  <advance width="576"/>
  <unicode hex="00F0"/>
  <outline>
    <contour>
      <point x="486" y="230" type="curve" smooth="yes"/>
      <point x="503" y="326"/>
      <point x="448" y="395"/>
      <point x="358" y="395" type="curve" smooth="yes"/>
      <point x="268" y="395"/>
      <point x="189" y="326"/>
      <point x="172" y="230" type="curve" smooth="yes"/>
      <point x="155" y="134"/>
      <point x="210" y="67"/>
      <point x="300" y="67" type="curve" smooth="yes"/>
      <point x="390" y="67"/>
      <point x="469" y="134"/>
    </contour>
    <contour>
      <point x="369" y="700" type="line"/>
      <point x="548" y="375" type="line" smooth="yes"/>
      <point x="568" y="338"/>
      <point x="577" y="287"/>
      <point x="567" y="230" type="curve" smooth="yes"/>
      <point x="542" y="86"/>
      <point x="421" y="-10"/>
      <point x="286" y="-10" type="curve" smooth="yes"/>
      <point x="151" y="-10"/>
      <point x="66" y="86"/>
      <point x="91" y="230" type="curve" smooth="yes"/>
      <point x="114" y="359"/>
      <point x="224" y="457"/>
      <point x="338" y="457" type="curve" smooth="yes"/>
      <point x="383" y="457"/>
      <point x="416" y="449"/>
      <point x="437" y="416" type="curve"/>
      <point x="430" y="411" type="line"/>
      <point x="262" y="700" type="line"/>
    </contour>
    <contour>
      <point x="247" y="520" type="line"/>
      <point x="258" y="585" type="line"/>
      <point x="558" y="585" type="line"/>
      <point x="547" y="520" type="line"/>
    </contour>
  </outline>
</glyph>
<glyph name="ntilde" format="1">
  <advance width="525"/>
  <unicode hex="00F1"/>
  <outline>
    <contour>
      <point x="236" y="460" type="line"/>
      <point x="155" y="0" type="line"/>
      <point x="75" y="0" type="line"/>
      <point x="156" y="460" type="line"/>
    </contour>
    <contour>
      <point x="419" y="280" type="line" smooth="yes"/>
      <point x="432" y="356"/>
      <point x="407" y="395"/>
      <point x="342" y="395" type="curve" smooth="yes"/>
      <point x="272" y="395"/>
      <point x="216" y="346"/>
      <point x="204" y="280" type="curve"/>
      <point x="168" y="280" type="line"/>
      <point x="187" y="389"/>
      <point x="280" y="470"/>
      <point x="375" y="470" type="curve" smooth="yes"/>
      <point x="470" y="470"/>
      <point x="522" y="409"/>
      <point x="501" y="290" type="curve" smooth="yes"/>
      <point x="450" y="0" type="line"/>
      <point x="370" y="0" type="line"/>
    </contour>
    <contour>
      <point x="198" y="567" type="line"/>
      <point x="217" y="616"/>
      <point x="271" y="649"/>
      <point x="316" y="649" type="curve" smooth="yes"/>
      <point x="381" y="649"/>
      <point x="378" y="602"/>
      <point x="432" y="602" type="curve" smooth="yes"/>
      <point x="451" y="602"/>
      <point x="471" y="618"/>
      <point x="497" y="650" type="curve"/>
      <point x="535" y="607" type="line"/>
      <point x="512" y="570"/>
      <point x="466" y="534"/>
      <point x="416" y="534" type="curve" smooth="yes"/>
      <point x="361" y="534"/>
      <point x="348" y="581"/>
      <point x="303" y="581" type="curve" smooth="yes"/>
      <point x="262" y="581"/>
      <point x="247" y="545"/>
      <point x="244" y="530" type="curve"/>
    </contour>
  </outline>
</glyph>
<glyph name="odieresis" format="1">
  <advance width="546"/>
  <unicode hex="00F6"/>
  <outline>
    <contour>
      <point x="76" y="230" type="curve" smooth="yes"/>
      <point x="101" y="369"/>
      <point x="221" y="470"/>
      <point x="356" y="470" type="curve" smooth="yes"/>
      <point x="491" y="470"/>
      <point x="577" y="369"/>
      <point x="552" y="230" type="curve" smooth="yes"/>
      <point x="527" y="91"/>
      <point x="406" y="-10"/>
      <point x="271" y="-10" type="curve" smooth="yes"/>
      <point x="136" y="-10"/>
      <point x="51" y="91"/>
    </contour>
    <contour>
      <point x="157" y="230" type="curve" smooth="yes"/>
      <point x="140" y="134"/>
      <point x="194" y="65"/>
      <point x="284" y="65" type="curve" smooth="yes"/>
      <point x="374" y="65"/>
      <point x="454" y="134"/>
      <point x="471" y="230" type="curve" smooth="yes"/>
      <point x="488" y="326"/>
      <point x="433" y="395"/>
      <point x="343" y="395" type="curve" smooth="yes"/>
      <point x="253" y="395"/>
      <point x="174" y="326"/>
    </contour>
    <contour>
      <point x="426" y="615" type="curve" smooth="yes"/>
      <point x="431" y="645"/>
      <point x="461" y="670"/>
      <point x="491" y="670" type="curve" smooth="yes"/>
      <point x="521" y="670"/>
      <point x="541" y="645"/>
      <point x="536" y="615" type="curve" smooth="yes"/>
      <point x="531" y="585"/>
      <point x="502" y="560"/>
      <point x="472" y="560" type="curve" smooth="yes"/>
      <point x="442" y="560"/>
      <point x="421" y="585"/>
    </contour>
    <contour>
      <point x="226" y="615" type="curve" smooth="yes"/>
      <point x="231" y="645"/>
      <point x="261" y="670"/>
      <point x="291" y="670" type="curve" smooth="yes"/>
      <point x="321" y="670"/>
      <point x="341" y="645"/>
      <point x="336" y="615" type="curve" smooth="yes"/>
      <point x="331" y="585"/>
      <point x="302" y="560"/>
      <point x="272" y="560" type="curve" smooth="yes"/>
      <point x="242" y="560"/>
      <point x="221" y="585"/>
    </contour>
  </outline>
</glyph>
<glyph name="aogonek" format="1">
  <advance width="485"/>
  <unicode hex="0105"/>
  <outline>
    <contour>
      <point x="135" y="135" type="curve" smooth="yes"/>
      <point x="126" y="86"/>
      <point x="155" y="61"/>
      <point x="219" y="61" type="curve" smooth="yes"/>
      <point x="299" y="61"/>
      <point x="362" y="94"/>
      <point x="377" y="180" type="curve"/>
      <point x="384" y="130" type="line"/>
      <point x="368" y="41"/>
      <point x="281" y="-10"/>
      <point x="186" y="-10" type="curve" smooth="yes"/>
      <point x="91" y="-10"/>
      <point x="37" y="41"/>
      <point x="52" y="125" type="curve" smooth="yes"/>
      <point x="71" y="232"/>
      <point x="165" y="286"/>
      <point x="276" y="286" type="curve" smooth="yes"/>
      <point x="364" y="286"/>
      <point x="407" y="242"/>
      <point x="418" y="225" type="curve"/>
      <point x="409" y="178" type="line"/>
      <point x="370" y="210"/>
      <point x="328" y="225"/>
      <point x="270" y="225" type="curve" smooth="yes"/>
      <point x="189" y="225"/>
      <point x="145" y="191"/>
    </contour>
    <contour>
      <point x="173" y="352" type="curve"/>
      <point x="145" y="413" type="line"/>
      <point x="183" y="438"/>
      <point x="248" y="470"/>
      <point x="331" y="470" type="curve" smooth="yes"/>
      <point x="436" y="470"/>
      <point x="499" y="419"/>
      <point x="483" y="330" type="curve" smooth="yes"/>
      <point x="425" y="0" type="line"/>
      <point x="345" y="0" type="line"/>
      <point x="403" y="330" type="line" smooth="yes"/>
      <point x="411" y="376"/>
      <point x="369" y="400"/>
      <point x="319" y="400" type="curve" smooth="yes"/>
      <point x="253" y="400"/>
      <point x="198" y="368"/>
    </contour>
    <contour>
      <point x="407" y="-130" type="curve"/>
      <point x="431" y="-180" type="line"/>
      <point x="412" y="-200"/>
      <point x="379" y="-220"/>
      <point x="336" y="-220" type="curve" smooth="yes"/>
      <point x="252" y="-220"/>
      <point x="221" y="-179"/>
      <point x="231" y="-120" type="curve"/>
      <point x="314" y="-100" type="line"/>
      <point x="308" y="-136"/>
      <point x="324" y="-150"/>
      <point x="354" y="-150" type="curve" smooth="yes"/>
      <point x="380" y="-150"/>
      <point x="391" y="-143"/>
    </contour>
    <contour>
      <point x="314" y="-100" type="curve"/>
      <point x="231" y="-120" type="line"/>
      <point x="241" y="-61"/>
      <point x="312" y="-11"/>
      <point x="388" y="25" type="curve"/>
      <point x="425" y="0" type="line"/>
      <point x="369" y="-22"/>
      <point x="321" y="-63"/>
    </contour>
  </outline>
</glyph>
<glyph name="gcircumflex" format="1">
  <advance width="570"/>
  <unicode hex="011D"/>
  <outline>
    <contour>
      <point x="497" y="230" type="curve"/>
      <point x="461" y="230" type="line"/>
      <point x="480" y="336"/>
      <point x="413" y="395"/>
      <point x="343" y="395" type="curve" smooth="yes"/>
      <point x="258" y="395"/>
      <point x="176" y="336"/>
      <point x="157" y="230" type="curve"/>
      <point x="76" y="230" type="line"/>
      <point x="102" y="379"/>
      <point x="221" y="470"/>
      <point x="346" y="470" type="curve" smooth="yes"/>
      <point x="461" y="470"/>
      <point x="523" y="379"/>
    </contour>
    <contour>
      <point x="461" y="230" type="curve"/>
      <point x="497" y="230" type="line"/>
      <point x="471" y="81"/>
      <point x="376" y="-10"/>
      <point x="261" y="-10" type="curve" smooth="yes"/>
      <point x="136" y="-10"/>
      <point x="50" y="81"/>
      <point x="76" y="230" type="curve"/>
      <point x="157" y="230" type="line"/>
      <point x="138" y="124"/>
      <point x="199" y="65"/>
      <point x="284" y="65" type="curve" smooth="yes"/>
      <point x="354" y="65"/>
      <point x="442" y="124"/>
    </contour>
    <contour>
      <point x="39" y="-30" type="curve"/>
      <point x="120" y="-30" type="line"/>
      <point x="108" y="-96"/>
      <point x="155" y="-155"/>
      <point x="245" y="-155" type="curve" smooth="yes"/>
      <point x="315" y="-155"/>
      <point x="402" y="-106"/>
      <point x="422" y="10" type="curve" smooth="yes"/>
      <point x="501" y="460" type="line"/>
      <point x="581" y="460" type="line"/>
      <point x="502" y="10" type="line" smooth="yes"/>
      <point x="474" y="-149"/>
      <point x="346" y="-230"/>
      <point x="231" y="-230" type="curve" smooth="yes"/>
      <point x="96" y="-230"/>
      <point x="18" y="-149"/>
    </contour>
    <contour>
      <point x="373" y="625" type="line"/>
      <point x="246" y="530" type="line"/>
      <point x="204" y="570" type="line"/>
      <point x="388" y="710" type="line"/>
      <point x="524" y="570" type="line"/>
      <point x="466" y="530" type="line"/>
    </contour>
  </outline>
</glyph>
<glyph name="Gdotaccent" format="1">
  <advance width="775"/>
  <unicode hex="0120"/>
  <outline>
    <contour>
      <point x="453" y="275" type="line"/>
      <point x="468" y="355" type="line"/>
      <point x="793" y="355" type="line"/>
      <point x="723" y="275" type="line"/>
    </contour>
    <contour>
      <point x="793" y="355" type="line"/>
      <point x="759" y="161"/>
      <point x="607" y="-10"/>
      <point x="393" y="-10" type="curve" smooth="yes"/>
      <point x="189" y="-10"/>
      <point x="65" y="141"/>
      <point x="102" y="350" type="curve" smooth="yes"/>
      <point x="139" y="559"/>
      <point x="316" y="710"/>
      <point x="520" y="710" type="curve" smooth="yes"/>
      <point x="649" y="710"/>
      <point x="742" y="658"/>
      <point x="785" y="561" type="curve"/>
      <point x="715" y="506" type="line"/>
      <point x="684" y="580"/>
      <point x="612" y="625"/>
      <point x="505" y="625" type="curve" smooth="yes"/>
      <point x="357" y="625"/>
      <point x="221" y="513"/>
      <point x="192" y="350" type="curve" smooth="yes"/>
      <point x="163" y="187"/>
      <point x="260" y="75"/>
      <point x="408" y="75" type="curve" smooth="yes"/>
      <point x="576" y="75"/>
      <point x="682" y="207"/>
      <point x="706" y="345" type="curve"/>
    </contour>
    <contour>
      <point x="485" y="825" type="curve" smooth="yes"/>
      <point x="490" y="855"/>
      <point x="520" y="880"/>
      <point x="550" y="880" type="curve" smooth="yes"/>
      <point x="580" y="880"/>
      <point x="600" y="855"/>
      <point x="595" y="825" type="curve" smooth="yes"/>
      <point x="590" y="795"/>
      <point x="561" y="770"/>
      <point x="531" y="770" type="curve" smooth="yes"/>
      <point x="501" y="770"/>
      <point x="480" y="795"/>
    </contour>
  </outline>
</glyph>
<glyph name="hcircumflex" format="1">
  <advance width="525"/>
  <unicode hex="0125"/>
  <outline>
    <contour>
      <point x="293" y="780" type="line"/>
      <point x="155" y="0" type="line"/>
      <point x="75" y="0" type="line"/>
      <point x="213" y="780" type="line"/>
    </contour>
    <contour>
      <point x="419" y="280" type="line" smooth="yes"/>
      <point x="432" y="356"/>
      <point x="407" y="395"/>
      <point x="342" y="395" type="curve" smooth="yes"/>
      <point x="272" y="395"/>
      <point x="216" y="346"/>
      <point x="204" y="280" type="curve"/>
      <point x="168" y="280" type="line"/>
      <point x="187" y="389"/>
      <point x="280" y="470"/>
      <point x="375" y="470" type="curve" smooth="yes"/>
      <point x="470" y="470"/>
      <point x="522" y="409"/>
      <point x="501" y="290" type="curve" smooth="yes"/>
      <point x="450" y="0" type="line"/>
      <point x="370" y="0" type="line"/>
    </contour>
    <contour>
      <point x="287" y="935" type="line"/>
      <point x="160" y="840" type="line"/>
      <point x="117" y="880" type="line"/>
      <point x="302" y="1020" type="line"/>
      <point x="437" y="880" type="line"/>
      <point x="380" y="840" type="line"/>
    </contour>
  </outline>
</glyph>
<glyph name="Iogonek" format="1">
  <advance width="245"/>
  <unicode hex="012E"/>
  <outline>
    <contour>
      <point x="203" y="700" type="line"/>
      <point x="288" y="700" type="line"/>
      <point x="165" y="0" type="line"/>
      <point x="80" y="0" type="line"/>
    </contour>
    <contour>
      <point x="143" y="-147" type="curve"/>
      <point x="167" y="-197" type="line"/>
      <point x="148" y="-217"/>
      <point x="115" y="-237"/>
      <point x="72" y="-237" type="curve" smooth="yes"/>
      <point x="-12" y="-237"/>
      <point x="-43" y="-196"/>
      <point x="-33" y="-137" type="curve"/>
      <point x="50" y="-117" type="line"/>
      <point x="44" y="-153"/>
      <point x="60" y="-167"/>
      <point x="90" y="-167" type="curve" smooth="yes"/>
      <point x="116" y="-167"/>
      <point x="127" y="-160"/>
    </contour>
    <contour>
      <point x="50" y="-117" type="curve"/>
      <point x="-33" y="-137" type="line"/>
      <point x="-23" y="-78"/>
      <point x="48" y="-28"/>
      <point x="124" y="8" type="curve"/>
      <point x="161" y="-17" type="line"/>
      <point x="105" y="-39"/>
      <point x="57" y="-80"/>
    </contour>
  </outline>
</glyph>
<glyph name="iogonek" format="1">
  <advance width="260"/>
  <unicode hex="012F"/>
  <outline>
    <contour>
      <point x="190" y="650" type="curve" smooth="yes"/>
      <point x="195" y="680"/>
      <point x="224" y="705"/>
      <point x="254" y="705" type="curve" smooth="yes"/>
      <point x="284" y="705"/>
      <point x="305" y="680"/>
      <point x="300" y="650" type="curve" smooth="yes"/>
      <point x="295" y="620"/>
      <point x="265" y="595"/>
      <point x="235" y="595" type="curve" smooth="yes"/>
      <point x="205" y="595"/>
      <point x="185" y="620"/>
    </contour>
    <contour>
      <point x="171" y="460" type="line"/>
      <point x="251" y="460" type="line"/>
      <point x="170" y="0" type="line"/>
      <point x="90" y="0" type="line"/>
    </contour>
    <contour>
      <point x="150" y="-147" type="curve"/>
      <point x="174" y="-197" type="line"/>
      <point x="155" y="-217"/>
      <point x="122" y="-237"/>
      <point x="79" y="-237" type="curve" smooth="yes"/>
      <point x="-5" y="-237"/>
      <point x="-36" y="-196"/>
      <point x="-26" y="-137" type="curve"/>
      <point x="57" y="-117" type="line"/>
      <point x="51" y="-153"/>
      <point x="67" y="-167"/>
      <point x="97" y="-167" type="curve" smooth="yes"/>
      <point x="123" y="-167"/>
      <point x="134" y="-160"/>
    </contour>
    <contour>
      <point x="57" y="-117" type="curve"/>
      <point x="-26" y="-137" type="line"/>
      <point x="-16" y="-78"/>
      <point x="55" y="-28"/>
      <point x="131" y="8" type="curve"/>
      <point x="168" y="-17" type="line"/>
      <point x="112" y="-39"/>
      <point x="64" y="-80"/>
    </contour>
  </outline>
</glyph>
<glyph name="ij" format="1">
  <advance width="510"/>
  <unicode hex="0133"/>
  <outline>
    <contour>
      <point x="440" y="650" type="curve" smooth="yes"/>
      <point x="445" y="680"/>
      <point x="474" y="705"/>
      <point x="504" y="705" type="curve" smooth="yes"/>
      <point x="534" y="705"/>
      <point x="555" y="680"/>
      <point x="550" y="650" type="curve" smooth="yes"/>
      <point x="545" y="620"/>
      <point x="515" y="595"/>
      <point x="485" y="595" type="curve" smooth="yes"/>
      <point x="455" y="595"/>
      <point x="435" y="620"/>
    </contour>
    <contour>
      <point x="223" y="-114" type="line"/>
      <point x="233" y="-137"/>
      <point x="251" y="-140"/>
      <point x="267" y="-140" type="curve" smooth="yes"/>
      <point x="297" y="-140"/>
      <point x="319" y="-116"/>
      <point x="331" y="-50" type="curve" smooth="yes"/>
      <point x="421" y="460" type="line"/>
      <point x="501" y="460" type="line"/>
      <point x="409" y="-60" type="line" smooth="yes"/>
      <point x="390" y="-169"/>
      <point x="332" y="-220"/>
      <point x="248" y="-220" type="curve" smooth="yes"/>
      <point x="205" y="-220"/>
      <point x="178" y="-200"/>
      <point x="167" y="-180" type="curve"/>
    </contour>
    <contour>
      <point x="190" y="650" type="curve" smooth="yes"/>
      <point x="195" y="680"/>
      <point x="224" y="705"/>
      <point x="254" y="705" type="curve" smooth="yes"/>
      <point x="284" y="705"/>
      <point x="305" y="680"/>
      <point x="300" y="650" type="curve" smooth="yes"/>
      <point x="295" y="620"/>
      <point x="265" y="595"/>
      <point x="235" y="595" type="curve" smooth="yes"/>
      <point x="205" y="595"/>
      <point x="185" y="620"/>
    </contour>
    <contour>
      <point x="171" y="460" type="line"/>
      <point x="251" y="460" type="line"/>
      <point x="170" y="0" type="line"/>
      <point x="90" y="0" type="line"/>
    </contour>
  </outline>
</glyph>
<glyph name="lacute" format="1">
  <advance width="230"/>
  <unicode hex="013A"/>
  <outline>
    <contour>
      <point x="213" y="780" type="line"/>
      <point x="293" y="780" type="line"/>
      <point x="155" y="0" type="line"/>
      <point x="75" y="0" type="line"/>
    </contour>
    <contour>
      <point x="420" y="990" type="line"/>
      <point x="213" y="840" type="line"/>
      <point x="173" y="870" type="line"/>
      <point x="352" y="1030" type="line"/>
    </contour>
  </outline>
</glyph>
<glyph name="uni013B" format="1">
  <advance width="450"/>
  <unicode hex="013B"/>
  <outline>
    <contour>
      <point x="127" y="0" type="line"/>
      <point x="141" y="80" type="line"/>
      <point x="454" y="80" type="line"/>
      <point x="440" y="0" type="line"/>
    </contour>
    <contour>
      <point x="203" y="700" type="line"/>
      <point x="288" y="700" type="line"/>
      <point x="165" y="0" type="line"/>
      <point x="80" y="0" type="line"/>
    </contour>
    <contour>
      <point x="253" y="-60" type="line"/>
      <point x="328" y="-90" type="line"/>
      <point x="174" y="-340" type="line"/>
      <point x="120" y="-319" type="line"/>
    </contour>
  </outline>
</glyph>
<glyph name="uni013C" format="1">
  <advance width="230"/>
  <unicode hex="013C"/>
  <outline>
    <contour>
      <point x="213" y="780" type="line"/>
      <point x="293" y="780" type="line"/>
      <point x="155" y="0" type="line"/>
      <point x="75" y="0" type="line"/>
    </contour>
    <contour>
      <point x="108" y="-60" type="line"/>
      <point x="183" y="-90" type="line"/>
      <point x="29" y="-340" type="line"/>
      <point x="-25" y="-319" type="line"/>
    </contour>
  </outline>
</glyph>
<glyph name="nacute" format="1">
  <advance width="525"/>
  <unicode hex="0144"/>
  <outline>
    <contour>
      <point x="236" y="460" type="line"/>
      <point x="155" y="0" type="line"/>
      <point x="75" y="0" type="line"/>
      <point x="156" y="460" type="line"/>
    </contour>
    <contour>
      <point x="419" y="280" type="line" smooth="yes"/>
      <point x="432" y="356"/>
      <point x="407" y="395"/>
      <point x="342" y="395" type="curve" smooth="yes"/>
      <point x="272" y="395"/>
      <point x="216" y="346"/>
      <point x="204" y="280" type="curve"/>
      <point x="168" y="280" type="line"/>
      <point x="187" y="389"/>
      <point x="280" y="470"/>
      <point x="375" y="470" type="curve" smooth="yes"/>
      <point x="470" y="470"/>
      <point x="522" y="409"/>
      <point x="501" y="290" type="curve" smooth="yes"/>
      <point x="450" y="0" type="line"/>
      <point x="370" y="0" type="line"/>
    </contour>
    <contour>
      <point x="512" y="680" type="line"/>
      <point x="305" y="530" type="line"/>
      <point x="267" y="560" type="line"/>
      <point x="445" y="720" type="line"/>
    </contour>
  </outline>
</glyph>
<glyph name="Ncaron" format="1">
  <advance width="775"/>
  <unicode hex="0147"/>
  <outline>
    <contour>
      <point x="192" y="605" type="line"/>
      <point x="210" y="735" type="line"/>
      <point x="707" y="95" type="line"/>
      <point x="689" y="-35" type="line"/>
    </contour>
    <contour>
      <point x="733" y="700" type="line"/>
      <point x="818" y="700" type="line"/>
      <point x="689" y="-35" type="line"/>
      <point x="623" y="75" type="line"/>
    </contour>
    <contour>
      <point x="210" y="735" type="line"/>
      <point x="275" y="625" type="line"/>
      <point x="165" y="0" type="line"/>
      <point x="80" y="0" type="line"/>
    </contour>
    <contour>
      <point x="555" y="880" type="line"/>
      <point x="682" y="975" type="line"/>
      <point x="725" y="935" type="line"/>
      <point x="540" y="795" type="line"/>
      <point x="405" y="935" type="line"/>
      <point x="462" y="975" type="line"/>
    </contour>
  </outline>
</glyph>
<glyph name="OE" format="1">
  <advance width="985"/>
  <unicode hex="0152"/>
  <outline>
    <contour>
      <point x="622" y="340" type="line"/>
      <point x="636" y="420" type="line"/>
      <point x="969" y="420" type="line"/>
      <point x="955" y="340" type="line"/>
    </contour>
    <contour>
      <point x="633" y="670" type="line"/>
      <point x="718" y="670" type="line"/>
      <point x="605" y="30" type="line"/>
      <point x="520" y="30" type="line"/>
    </contour>
    <contour>
      <point x="930" y="80" type="line"/>
      <point x="916" y="0" type="line"/>
      <point x="390" y="0" type="line" smooth="yes"/>
      <point x="187" y="0"/>
      <point x="65" y="141"/>
      <point x="102" y="350" type="curve" smooth="yes"/>
      <point x="139" y="559"/>
      <point x="309" y="700"/>
      <point x="513" y="700" type="curve" smooth="yes"/>
      <point x="1038" y="700" type="line"/>
      <point x="1024" y="620" type="line"/>
      <point x="677" y="620" type="line"/>
      <point x="660" y="620" type="line"/>
      <point x="499" y="620" type="line" smooth="yes"/>
      <point x="341" y="620"/>
      <point x="216" y="513"/>
      <point x="187" y="350" type="curve" smooth="yes"/>
      <point x="158" y="187"/>
      <point x="247" y="80"/>
      <point x="404" y="80" type="curve" smooth="yes"/>
      <point x="562" y="80" type="line"/>
      <point x="586" y="80" type="line"/>
    </contour>
  </outline>
</glyph>
<glyph name="Ydieresis" format="1">
  <advance width="561"/>
  <unicode hex="0178"/>
  <outline>
    <contour>
      <point x="301" y="360" type="line"/>
      <point x="386" y="360" type="line"/>
      <point x="323" y="0" type="line"/>
      <point x="238" y="0" type="line"/>
    </contour>
    <contour>
      <point x="584" y="700" type="line"/>
      <point x="679" y="700" type="line"/>
      <point x="320" y="229" type="line"/>
      <point x="128" y="700" type="line"/>
      <point x="223" y="700" type="line"/>
      <point x="346" y="376" type="line"/>
    </contour>
    <contour>
      <point x="471" y="825" type="curve" smooth="yes"/>
      <point x="476" y="855"/>
      <point x="505" y="880"/>
      <point x="535" y="880" type="curve" smooth="yes"/>
      <point x="565" y="880"/>
      <point x="586" y="855"/>
      <point x="581" y="825" type="curve" smooth="yes"/>
      <point x="576" y="795"/>
      <point x="546" y="770"/>
      <point x="516" y="770" type="curve" smooth="yes"/>
      <point x="486" y="770"/>
      <point x="466" y="795"/>
    </contour>
    <contour>
      <point x="271" y="825" type="curve" smooth="yes"/>
      <point x="276" y="855"/>
      <point x="305" y="880"/>
      <point x="335" y="880" type="curve" smooth="yes"/>
      <point x="365" y="880"/>
      <point x="386" y="855"/>
      <point x="381" y="825" type="curve" smooth="yes"/>
      <point x="376" y="795"/>
      <point x="346" y="770"/>
      <point x="316" y="770" type="curve" smooth="yes"/>
      <point x="286" y="770"/>
      <point x="266" y="795"/>
    </contour>
  </outline>
</glyph>
<glyph name="uni0237" format="1">
  <advance width="250"/>
  <unicode hex="0237"/>
  <outline>
    <contour>
      <point x="-37" y="-114" type="line"/>
      <point x="-27" y="-137"/>
      <point x="-9" y="-140"/>
      <point x="7" y="-140" type="curve" smooth="yes"/>
      <point x="37" y="-140"/>
      <point x="59" y="-116"/>
      <point x="71" y="-50" type="curve" smooth="yes"/>
      <point x="161" y="460" type="line"/>
      <point x="241" y="460" type="line"/>
      <point x="149" y="-60" type="line" smooth="yes"/>
      <point x="130" y="-169"/>
      <point x="72" y="-220"/>
      <point x="-12" y="-220" type="curve" smooth="yes"/>
      <point x="-55" y="-220"/>
      <point x="-82" y="-200"/>
      <point x="-93" y="-180" type="curve"/>
    </contour>
  </outline>
</glyph>
<glyph name="ogonek" format="1">
  <advance width="260"/>
  <unicode hex="02DB"/>
  <outline>
    <contour>
      <point x="171" y="-130" type="curve"/>
      <point x="195" y="-180" type="line"/>
      <point x="176" y="-200"/>
      <point x="143" y="-220"/>
      <point x="100" y="-220" type="curve" smooth="yes"/>
      <point x="16" y="-220"/>
      <point x="-15" y="-179"/>
      <point x="-5" y="-120" type="curve"/>
      <point x="78" y="-100" type="line"/>
      <point x="72" y="-136"/>
      <point x="88" y="-150"/>
      <point x="118" y="-150" type="curve" smooth="yes"/>
      <point x="144" y="-150"/>
      <point x="155" y="-143"/>
    </contour>
    <contour>
      <point x="78" y="-100" type="curve"/>
      <point x="-5" y="-120" type="line"/>
      <point x="5" y="-61"/>
      <point x="76" y="-11"/>
      <point x="152" y="25" type="curve"/>
      <point x="189" y="0" type="line"/>
      <point x="133" y="-22"/>
      <point x="85" y="-63"/>
    </contour>
  </outline>
</glyph>
<glyph name="figuredash" format="1">
  <advance width="590"/>
  <unicode hex="2012"/>
  <outline>
    <contour>
      <point x="105" y="200" type="line"/>
      <point x="118" y="275" type="line"/>
      <point x="568" y="275" type="line"/>
      <point x="555" y="200" type="line"/>
    </contour>
  </outline>
</glyph>
<glyph name="emdash" format="1">
  <advance width="890"/>
  <unicode hex="2014"/>
  <outline>
    <contour>
      <point x="105" y="200" type="line"/>
      <point x="118" y="275" type="line"/>
      <point x="868" y="275" type="line"/>
      <point x="855" y="200" type="line"/>
    </contour>
  </outline>
</glyph>
<glyph name="quotesinglbase" format="1">
  <advance width="275"/>
  <unicode hex="201A"/>
  <outline>
    <contour>
      <point x="134" y="80" type="line"/>
      <point x="229" y="80" type="line"/>
      <point x="89" y="-150" type="line"/>
      <point x="34" y="-150" type="line"/>
    </contour>
  </outline>
</glyph>
<glyph name="guilsinglleft" format="1">
  <advance width="350"/>
  <unicode hex="2039"/>
  <outline>
    <contour>
      <point x="151" y="235" type="line"/>
      <point x="85" y="255" type="line"/>
      <point x="316" y="490" type="line"/>
      <point x="358" y="445" type="line"/>
    </contour>
    <contour>
      <point x="85" y="255" type="line"/>
      <point x="160" y="285" type="line"/>
      <point x="291" y="65" type="line"/>
      <point x="234" y="20" type="line"/>
    </contour>
  </outline>
</glyph>
<glyph name="guilsinglright" format="1">
  <advance width="350"/>
  <unicode hex="203A"/>
  <outline>
    <contour>
      <point x="288" y="275" type="line"/>
      <point x="355" y="255" type="line"/>
      <point x="124" y="20" type="line"/>
      <point x="81" y="65" type="line"/>
    </contour>
    <contour>
      <point x="355" y="255" type="line"/>
      <point x="280" y="225" type="line"/>
      <point x="148" y="445" type="line"/>
      <point x="206" y="490" type="line"/>
    </contour>
  </outline>
</glyph>
<glyph name="uni2074" format="1">
  <advance width="386"/>
  <unicode hex="2074"/>
  <outline>
    <contour>
      <point x="94" y="364" type="line"/>
      <point x="144" y="409" type="line"/>
      <point x="326" y="409" type="line" smooth="yes"/>
      <point x="336" y="409" type="line" smooth="yes"/>
      <point x="422" y="409" type="line"/>
      <point x="414" y="364" type="line"/>
    </contour>
    <contour>
      <point x="148" y="364" type="line"/>
      <point x="94" y="364" type="line"/>
      <point x="386" y="700" type="line"/>
      <point x="407" y="700" type="line"/>
      <point x="333" y="280" type="line"/>
      <point x="282" y="280" type="line"/>
      <point x="301" y="386" type="line" smooth="yes"/>
      <point x="302" y="392" type="line" smooth="yes"/>
      <point x="337" y="587" type="line"/>
    </contour>
  </outline>
</glyph>
<glyph name="uni2152" format="1">
  <advance width="1080"/>
  <unicode hex="2152"/>
  <outline>
    <contour>
      <point x="691" y="700" type="line"/>
      <point x="756" y="700" type="line"/>
      <point x="113" y="0" type="line"/>
      <point x="48" y="0" type="line"/>
    </contour>
    <contour>
      <point x="138" y="611" type="line"/>
      <point x="147" y="664" type="line"/>
      <point x="297" y="700" type="line"/>
      <point x="222" y="274" type="line"/>
      <point x="171" y="274" type="line"/>
      <point x="236" y="639" type="line"/>
    </contour>
    <contour>
      <point x="548" y="338" type="line"/>
      <point x="557" y="391" type="line"/>
      <point x="707" y="427" type="line"/>
      <point x="632" y="1" type="line"/>
      <point x="581" y="1" type="line"/>
      <point x="646" y="366" type="line"/>
    </contour>
    <contour>
      <point x="826" y="210" type="curve" smooth="yes"/>
      <point x="809" y="112"/>
      <point x="836" y="42"/>
      <point x="901" y="42" type="curve" smooth="yes"/>
      <point x="966" y="42"/>
      <point x="1019" y="112"/>
      <point x="1036" y="210" type="curve" smooth="yes"/>
      <point x="1053" y="308"/>
      <point x="1026" y="378"/>
      <point x="961" y="378" type="curve" smooth="yes"/>
      <point x="896" y="378"/>
      <point x="843" y="308"/>
    </contour>
    <contour>
      <point x="775" y="210" type="curve" smooth="yes"/>
      <point x="797" y="335"/>
      <point x="877" y="426"/>
      <point x="969" y="426" type="curve" smooth="yes"/>
      <point x="1061" y="426"/>
      <point x="1109" y="335"/>
      <point x="1087" y="210" type="curve" smooth="yes"/>
      <point x="1065" y="85"/>
      <point x="985" y="-6"/>
      <point x="893" y="-6" type="curve" smooth="yes"/>
      <point x="801" y="-6"/>
      <point x="753" y="85"/>
    </contour>
  </outline>
</glyph>
<glyph name="uni2155" format="1">
  <advance width="744"/>
  <unicode hex="2155"/>
  <outline>
    <contour>
      <point x="691" y="700" type="line"/>
      <point x="756" y="700" type="line"/>
      <point x="113" y="0" type="line"/>
      <point x="48" y="0" type="line"/>
    </contour>
    <contour>
      <point x="138" y="611" type="line"/>
      <point x="147" y="664" type="line"/>
      <point x="297" y="700" type="line"/>
      <point x="222" y="274" type="line"/>
      <point x="171" y="274" type="line"/>
      <point x="236" y="639" type="line"/>
    </contour>
    <contour>
      <point x="738" y="136" type="curve" smooth="yes"/>
      <point x="721" y="41"/>
      <point x="647" y="-8"/>
      <point x="566" y="-8" type="curve" smooth="yes"/>
      <point x="489" y="-8"/>
      <point x="452" y="32"/>
      <point x="432" y="80" type="curve"/>
      <point x="480" y="110" type="line"/>
      <point x="493" y="74"/>
      <point x="528" y="40"/>
      <point x="574" y="40" type="curve" smooth="yes"/>
      <point x="634" y="40"/>
      <point x="675" y="78"/>
      <point x="685" y="136" type="curve" smooth="yes"/>
      <point x="695" y="194"/>
      <point x="662" y="232"/>
      <point x="608" y="232" type="curve" smooth="yes"/>
      <point x="568" y="232"/>
      <point x="542" y="224"/>
      <point x="494" y="194" type="curve"/>
      <point x="531" y="234" type="line"/>
      <point x="564" y="264"/>
      <point x="603" y="278"/>
      <point x="638" y="278" type="curve" smooth="yes"/>
      <point x="710" y="278"/>
      <point x="753" y="219"/>
    </contour>
    <contour>
      <point x="620" y="373" type="line"/>
      <point x="567" y="248" type="line"/>
      <point x="494" y="194" type="line"/>
      <point x="589" y="418" type="line"/>
      <point x="787" y="418" type="line"/>
      <point x="779" y="373" type="line"/>
    </contour>
  </outline>
</glyph>
<glyph name="uni2159" format="1">
  <advance width="734"/>
  <unicode hex="2159"/>
  <outline>
    <contour>
      <point x="691" y="700" type="line"/>
      <point x="756" y="700" type="line"/>
      <point x="113" y="0" type="line"/>
      <point x="48" y="0" type="line"/>
    </contour>
    <contour>
      <point x="138" y="611" type="line"/>
      <point x="147" y="664" type="line"/>
      <point x="297" y="700" type="line"/>
      <point x="222" y="274" type="line"/>
      <point x="171" y="274" type="line"/>
      <point x="236" y="639" type="line"/>
    </contour>
    <contour>
      <point x="497" y="136" type="curve" smooth="yes"/>
      <point x="487" y="78"/>
      <point x="520" y="38"/>
      <point x="574" y="38" type="curve" smooth="yes"/>
      <point x="628" y="38"/>
      <point x="675" y="78"/>
      <point x="685" y="136" type="curve" smooth="yes"/>
      <point x="695" y="194"/>
      <point x="662" y="235"/>
      <point x="608" y="235" type="curve" smooth="yes"/>
      <point x="554" y="235"/>
      <point x="507" y="194"/>
    </contour>
    <contour>
      <point x="666" y="418" type="line"/>
      <point x="731" y="418" type="line"/>
      <point x="568" y="245" type="line"/>
      <point x="566" y="248" type="line"/>
      <point x="586" y="268"/>
      <point x="607" y="272"/>
      <point x="634" y="272" type="curve" smooth="yes"/>
      <point x="702" y="272"/>
      <point x="748" y="213"/>
      <point x="734" y="136" type="curve" smooth="yes"/>
      <point x="719" y="50"/>
      <point x="647" y="-8"/>
      <point x="566" y="-8" type="curve" smooth="yes"/>
      <point x="485" y="-8"/>
      <point x="433" y="50"/>
      <point x="448" y="136" type="curve" smooth="yes"/>
      <point x="454" y="170"/>
      <point x="470" y="201"/>
      <point x="490" y="223" type="curve" smooth="yes"/>
    </contour>
  </outline>
</glyph>
<glyph name="uni2219" format="1">
  <advance width="300"/>
  <unicode hex="2219"/>
  <outline>
    <contour>
      <point x="168" y="415" type="curve" smooth="yes"/>
      <point x="173" y="445"/>
      <point x="203" y="470"/>
      <point x="233" y="470" type="curve" smooth="yes"/>
      <point x="263" y="470"/>
      <point x="283" y="445"/>
      <point x="278" y="415" type="curve" smooth="yes"/>
      <point x="273" y="385"/>
      <point x="243" y="360"/>
      <point x="213" y="360" type="curve" smooth="yes"/>
      <point x="183" y="360"/>
      <point x="163" y="385"/>
    </contour>
  </outline>
</glyph>
<glyph name="uniFF15" format="1">
  <advance width="580"/>
  <unicode hex="FF15"/>
  <outline>
    <contour>
      <point x="573" y="230" type="curve" smooth="yes"/>
      <point x="545" y="71"/>
      <point x="420" y="-10"/>
      <point x="285" y="-10" type="curve" smooth="yes"/>
      <point x="156" y="-10"/>
      <point x="94" y="57"/>
      <point x="62" y="137" type="curve"/>
      <point x="143" y="186" type="line"/>
      <point x="163" y="126"/>
      <point x="222" y="70"/>
      <point x="299" y="70" type="curve" smooth="yes"/>
      <point x="399" y="70"/>
      <point x="468" y="134"/>
      <point x="485" y="230" type="curve" smooth="yes"/>
      <point x="502" y="326"/>
      <point x="446" y="390"/>
      <point x="356" y="390" type="curve" smooth="yes"/>
      <point x="289" y="390"/>
      <point x="246" y="377"/>
      <point x="166" y="327" type="curve"/>
      <point x="227" y="393" type="line"/>
      <point x="282" y="443"/>
      <point x="346" y="466"/>
      <point x="405" y="466" type="curve" smooth="yes"/>
      <point x="525" y="466"/>
      <point x="598" y="369"/>
    </contour>
    <contour>
      <point x="376" y="625" type="line"/>
      <point x="287" y="417" type="line"/>
      <point x="166" y="327" type="line"/>
      <point x="323" y="700" type="line"/>
      <point x="653" y="700" type="line"/>
      <point x="640" y="625" type="line"/>
    </contour>
  </outline>
</glyph>
<glyph name="uniFF16" format="1">
  <advance width="580"/>
  <unicode hex="FF16"/>
  <outline>
    <contour>
      <point x="174" y="230" type="curve" smooth="yes"/>
      <point x="157" y="134"/>
      <point x="212" y="67"/>
      <point x="302" y="67" type="curve" smooth="yes"/>
      <point x="392" y="67"/>
      <point x="471" y="134"/>
      <point x="488" y="230" type="curve" smooth="yes"/>
      <point x="505" y="326"/>
      <point x="450" y="395"/>
      <point x="360" y="395" type="curve" smooth="yes"/>
      <point x="270" y="395"/>
      <point x="191" y="326"/>
    </contour>
    <contour>
      <point x="455" y="700" type="line"/>
      <point x="562" y="700" type="line"/>
      <point x="292" y="411" type="line"/>
      <point x="287" y="416" type="line"/>
      <point x="320" y="449"/>
      <point x="357" y="457"/>
      <point x="402" y="457" type="curve" smooth="yes"/>
      <point x="516" y="457"/>
      <point x="592" y="359"/>
      <point x="569" y="230" type="curve" smooth="yes"/>
      <point x="544" y="86"/>
      <point x="423" y="-10"/>
      <point x="288" y="-10" type="curve" smooth="yes"/>
      <point x="153" y="-10"/>
      <point x="68" y="86"/>
      <point x="93" y="230" type="curve" smooth="yes"/>
      <point x="103" y="287"/>
      <point x="128" y="338"/>
      <point x="162" y="375" type="curve" smooth="yes"/>
    </contour>
  </outline>
</glyph>
<glyph name="uniFF17" format="1">
  <advance width="580"/>
  <unicode hex="FF17"/>
  <outline>
    <contour>
      <point x="167" y="620" type="line"/>
      <point x="181" y="700" type="line"/>
      <point x="671" y="700" type="line"/>
      <point x="212" y="0" type="line"/>
      <point x="124" y="0" type="line"/>
      <point x="529" y="620" type="line"/>
    </contour>
  </outline>
</glyph>
<glyph name="abreve.alt" format="1">
  <advance width="570"/>
  <outline>
    <contour>
      <point x="506" y="460" type="line"/>
      <point x="581" y="460" type="line"/>
      <point x="500" y="0" type="line"/>
      <point x="425" y="0" type="line"/>
    </contour>
    <contour>
      <point x="76" y="230" type="curve" smooth="yes"/>
      <point x="102" y="379"/>
      <point x="221" y="470"/>
      <point x="346" y="470" type="curve" smooth="yes"/>
      <point x="461" y="470"/>
      <point x="523" y="379"/>
      <point x="497" y="230" type="curve" smooth="yes"/>
      <point x="471" y="81"/>
      <point x="376" y="-10"/>
      <point x="261" y="-10" type="curve" smooth="yes"/>
      <point x="136" y="-10"/>
      <point x="50" y="81"/>
    </contour>
    <contour>
      <point x="157" y="230" type="curve" smooth="yes"/>
      <point x="138" y="124"/>
      <point x="199" y="65"/>
      <point x="284" y="65" type="curve" smooth="yes"/>
      <point x="354" y="65"/>
      <point x="442" y="124"/>
      <point x="461" y="230" type="curve" smooth="yes"/>
      <point x="480" y="336"/>
      <point x="413" y="395"/>
      <point x="343" y="395" type="curve" smooth="yes"/>
      <point x="258" y="395"/>
      <point x="176" y="336"/>
    </contour>
    <contour>
      <point x="223" y="670" type="curve"/>
      <point x="294" y="670" type="line"/>
      <point x="289" y="644"/>
      <point x="298" y="595"/>
      <point x="368" y="595" type="curve" smooth="yes"/>
      <point x="438" y="595"/>
      <point x="463" y="644"/>
      <point x="468" y="670" type="curve"/>
      <point x="539" y="670" type="line"/>
      <point x="527" y="601"/>
      <point x="461" y="530"/>
      <point x="356" y="530" type="curve" smooth="yes"/>
      <point x="251" y="530"/>
      <point x="211" y="601"/>
    </contour>
  </outline>
</glyph>
<glyph name="adieresis.alt" format="1">
  <advance width="570"/>
  <outline>
    <contour>
      <point x="506" y="460" type="line"/>
      <point x="581" y="460" type="line"/>
      <point x="500" y="0" type="line"/>
      <point x="425" y="0" type="line"/>
    </contour>
    <contour>
      <point x="76" y="230" type="curve" smooth="yes"/>
      <point x="102" y="379"/>
      <point x="221" y="470"/>
      <point x="346" y="470" type="curve" smooth="yes"/>
      <point x="461" y="470"/>
      <point x="523" y="379"/>
      <point x="497" y="230" type="curve" smooth="yes"/>
      <point x="471" y="81"/>
      <point x="376" y="-10"/>
      <point x="261" y="-10" type="curve" smooth="yes"/>
      <point x="136" y="-10"/>
      <point x="50" y="81"/>
    </contour>
    <contour>
      <point x="157" y="230" type="curve" smooth="yes"/>
      <point x="138" y="124"/>
      <point x="199" y="65"/>
      <point x="284" y="65" type="curve" smooth="yes"/>
      <point x="354" y="65"/>
      <point x="442" y="124"/>
      <point x="461" y="230" type="curve" smooth="yes"/>
      <point x="480" y="336"/>
      <point x="413" y="395"/>
      <point x="343" y="395" type="curve" smooth="yes"/>
      <point x="258" y="395"/>
      <point x="176" y="336"/>
    </contour>
    <contour>
      <point x="431" y="585" type="curve" smooth="yes"/>
      <point x="436" y="615"/>
      <point x="466" y="640"/>
      <point x="496" y="640" type="curve" smooth="yes"/>
      <point x="526" y="640"/>
      <point x="546" y="615"/>
      <point x="541" y="585" type="curve" smooth="yes"/>
      <point x="536" y="555"/>
      <point x="506" y="530"/>
      <point x="476" y="530" type="curve" smooth="yes"/>
      <point x="446" y="530"/>
      <point x="426" y="555"/>
    </contour>
    <contour>
      <point x="231" y="585" type="curve" smooth="yes"/>
      <point x="236" y="615"/>
      <point x="266" y="640"/>
      <point x="296" y="640" type="curve" smooth="yes"/>
      <point x="326" y="640"/>
      <point x="346" y="615"/>
      <point x="341" y="585" type="curve" smooth="yes"/>
      <point x="336" y="555"/>
      <point x="306" y="530"/>
      <point x="276" y="530" type="curve" smooth="yes"/>
      <point x="246" y="530"/>
      <point x="226" y="555"/>
    </contour>
  </outline>
</glyph>
<glyph name="aogonek.alt" format="1">
  <advance width="568"/>
  <outline>
    <contour>
      <point x="506" y="460" type="line"/>
      <point x="581" y="460" type="line"/>
      <point x="500" y="0" type="line"/>
      <point x="425" y="0" type="line"/>
    </contour>
    <contour>
      <point x="76" y="230" type="curve" smooth="yes"/>
      <point x="102" y="379"/>
      <point x="221" y="470"/>
      <point x="346" y="470" type="curve" smooth="yes"/>
      <point x="461" y="470"/>
      <point x="523" y="379"/>
      <point x="497" y="230" type="curve" smooth="yes"/>
      <point x="471" y="81"/>
      <point x="376" y="-10"/>
      <point x="261" y="-10" type="curve" smooth="yes"/>
      <point x="136" y="-10"/>
      <point x="50" y="81"/>
    </contour>
    <contour>
      <point x="157" y="230" type="curve" smooth="yes"/>
      <point x="138" y="124"/>
      <point x="199" y="65"/>
      <point x="284" y="65" type="curve" smooth="yes"/>
      <point x="354" y="65"/>
      <point x="442" y="124"/>
      <point x="461" y="230" type="curve" smooth="yes"/>
      <point x="480" y="336"/>
      <point x="413" y="395"/>
      <point x="343" y="395" type="curve" smooth="yes"/>
      <point x="258" y="395"/>
      <point x="176" y="336"/>
    </contour>
    <contour>
      <point x="482" y="-130" type="curve"/>
      <point x="506" y="-180" type="line"/>
      <point x="487" y="-200"/>
      <point x="454" y="-220"/>
      <point x="411" y="-220" type="curve" smooth="yes"/>
      <point x="327" y="-220"/>
      <point x="296" y="-179"/>
      <point x="306" y="-120" type="curve"/>
      <point x="389" y="-100" type="line"/>
      <point x="383" y="-136"/>
      <point x="399" y="-150"/>
      <point x="429" y="-150" type="curve" smooth="yes"/>
      <point x="455" y="-150"/>
      <point x="466" y="-143"/>
    </contour>
    <contour>
      <point x="389" y="-100" type="curve"/>
      <point x="306" y="-120" type="line"/>
      <point x="316" y="-61"/>
      <point x="387" y="-11"/>
      <point x="463" y="25" type="curve"/>
      <point x="500" y="0" type="line"/>
      <point x="444" y="-22"/>
      <point x="396" y="-63"/>
    </contour>
  </outline>
</glyph>
<glyph name="aring.alt" format="1">
  <advance width="570"/>
  <outline>
    <contour>
      <point x="506" y="460" type="line"/>
      <point x="581" y="460" type="line"/>
      <point x="500" y="0" type="line"/>
      <point x="425" y="0" type="line"/>
    </contour>
    <contour>
      <point x="76" y="230" type="curve" smooth="yes"/>
      <point x="102" y="379"/>
      <point x="221" y="470"/>
      <point x="346" y="470" type="curve" smooth="yes"/>
      <point x="461" y="470"/>
      <point x="523" y="379"/>
      <point x="497" y="230" type="curve" smooth="yes"/>
      <point x="471" y="81"/>
      <point x="376" y="-10"/>
      <point x="261" y="-10" type="curve" smooth="yes"/>
      <point x="136" y="-10"/>
      <point x="50" y="81"/>
    </contour>
    <contour>
      <point x="157" y="230" type="curve" smooth="yes"/>
      <point x="138" y="124"/>
      <point x="199" y="65"/>
      <point x="284" y="65" type="curve" smooth="yes"/>
      <point x="354" y="65"/>
      <point x="442" y="124"/>
      <point x="461" y="230" type="curve" smooth="yes"/>
      <point x="480" y="336"/>
      <point x="413" y="395"/>
      <point x="343" y="395" type="curve" smooth="yes"/>
      <point x="258" y="395"/>
      <point x="176" y="336"/>
    </contour>
    <contour>
      <point x="292" y="630" type="curve" smooth="yes"/>
      <point x="303" y="690"/>
      <point x="360" y="730"/>
      <point x="412" y="730" type="curve" smooth="yes"/>
      <point x="464" y="730"/>
      <point x="507" y="690"/>
      <point x="496" y="630" type="curve" smooth="yes"/>
      <point x="485" y="570"/>
      <point x="428" y="530"/>
      <point x="376" y="530" type="curve" smooth="yes"/>
      <point x="324" y="530"/>
      <point x="281" y="570"/>
    </contour>
    <contour>
      <point x="343" y="630" type="curve" smooth="yes"/>
      <point x="337" y="597"/>
      <point x="360" y="577"/>
      <point x="385" y="577" type="curve" smooth="yes"/>
      <point x="410" y="577"/>
      <point x="439" y="597"/>
      <point x="445" y="630" type="curve" smooth="yes"/>
      <point x="451" y="663"/>
      <point x="428" y="683"/>
      <point x="403" y="683" type="curve" smooth="yes"/>
      <point x="378" y="683"/>
      <point x="349" y="663"/>
    </contour>
  </outline>
</glyph>
